<?xml version="1.0" encoding="utf-8"?>
<!-- Generator: Adobe Illustrator 17.0.2, SVG Export Plug-In . SVG Version: 6.00 Build 0)  -->
<!DOCTYPE svg PUBLIC "-//W3C//DTD SVG 1.1//EN" "http://www.w3.org/Graphics/SVG/1.1/DTD/svg11.dtd">
<svg version="1.1" id="Layer_1" xmlns="http://www.w3.org/2000/svg" xmlns:xlink="http://www.w3.org/1999/xlink" x="0px" y="0px"
	 width="158.275px" height="113.757px" viewBox="0 0 158.275 113.757" enable-background="new 0 0 158.275 113.757"
	 xml:space="preserve">
<g>
	<path fill="#FFFFFF" d="M149.21,93.669c0-1.016-0.003-1.021-0.993-1.022c-2.833-0.003-5.665-0.003-8.498-0.003
		c-1.126,0-1.163,0.026-1.164,1.147c-0.005,4.936,0.002,17.6-0.003,18.996c-0.003,0.799-0.069,0.865-0.845,0.869
		c-1.229,0.005-2.458,0.006-3.687,0.002c-0.789-0.002-0.844-0.054-0.845-0.862c-0.003-6.249-0.01-19.204-0.008-19.433
		c0.004-0.496-0.247-0.718-0.734-0.716c-0.979,0.004-1.958,0.005-2.937-0.004c-0.799-0.007-0.925-0.126-0.926-0.896
		c-0.002-6.061-0.001-12.122,0.003-18.183c0.001-0.849,0.27-1.104,1.135-1.11c0.875-0.006,1.749-0.008,2.624-0.008
		c0.591,0,0.904-0.261,0.836-0.879c-0.092-0.842-0.205-1.681-0.282-2.524c-2.439-26.642-23.689-49.95-51.35-50.609
		c-27.515-0.655-54.708,20.285-56.242,49.01c-0.074,1.388-0.135,2.777-0.215,4.165c-0.033,0.57,0.153,0.799,0.75,0.803
		c0.895,0.006,1.79-0.028,2.684-0.002c1.058,0.031,1.129,0.131,1.12,1.169c-0.02,2.311-0.031,14.305-0.022,17.991
		c0.002,1.022-0.054,1.077-1.099,1.079c-0.875,0.002-1.75,0.013-2.624,0.001c-0.425-0.006-0.612,0.186-0.608,0.599
		c0.003,0.25-0.005,0.5-0.005,0.75c0,6.228,0,12.455-0.001,18.683c0,0.971-0.007,0.977-0.976,0.978
		c-1.271,0.002-2.541,0.003-3.812,0c-0.872-0.003-0.915-0.045-0.915-0.921c-0.001-6.186-0.003-12.372,0.001-18.558
		c0.001-1.84-0.095-1.513-1.535-1.523c-2.687-0.02-5.374-0.006-8.061-0.004c-1.011,0.001-1.064,0.051-1.064,1.052
		c-0.002,6.353,0,12.705-0.001,19.058c0,0.86-0.073,0.904-0.922,0.904c-0.53,0-0.692-0.249-0.688-0.729
		c0.01-1.187,0.014-19.08-0.009-19.37c-0.053-0.685-0.298-0.913-0.989-0.915c-1.791-0.005-3.582,0.002-5.374-0.004
		C0.09,92.647,0,92.549,0,91.713c0-6.04,0-12.081,0-18.121c0-1.028,0.206-1.216,1.264-1.212c1.749,0.006,3.497-0.017,5.245,0.008
		c0.626,0.009,0.853-0.24,0.846-0.849c-0.01-0.957-0.001-1.917,0.06-2.872c0.126-1.969,0.247-3.939,0.46-5.9
		C11.266,31.596,38.897,4.08,70.141,1.217c16.161-1.481,32.8,1.519,46.838,10.15c13.816,8.496,24.273,21.197,29.716,36.566
		c1.533,4.327,2.142,7.14,3.296,13.145c0.466,2.424,1.012,5.673,1.201,8.134c0.07,0.91,0.156,1.819,0.227,2.73
		c0.04,0.52,0.427,0.494,0.778,0.496c1.687,0.01,2.98,0.01,4.668,0.015c0.187,0.001,0.377-0.007,0.561,0.021
		c0.447,0.067,0.704,0.294,0.698,0.791c-0.014,1.229-0.002,2.458-0.002,3.687c0,4.853-0.001,9.706-0.002,14.559
		c0,1.128-0.002,1.131-1.163,1.133c-1.625,0.003-3.249,0.002-4.874,0.004c-1.027,0.001-1.055,0.022-1.055,1.041
		c-0.002,6.249-0.002,12.497-0.002,18.746c0,0.062,0.001,0.125,0.001,0.187c0.001,0.947-0.685,1.405-1.532,0.97
		c-0.167-0.085-0.27-0.444-0.271-0.678C149.205,110.186,149.212,96.835,149.21,93.669C149.21,92.652,149.212,96.835,149.21,93.669
		C149.21,92.652,149.212,96.835,149.21,93.669C149.21,92.652,149.212,96.835,149.21,93.669z M99.628,16.903
		c7.583,3.04,14.184,6.928,20.197,12.523c10.341,9.622,16.995,23.424,18.289,37.478c0.133,1.449,0.112,2.912,0.155,4.369
		c0.033,1.124,0.078,1.175,1.236,1.177c2.437,0.003,8.602-0.01,9.248-0.008c0.579,0.002,0.884-0.209,0.82-0.858
		c-0.126-1.291-0.116-2.555-0.291-3.888c-0.394-2.983-1.691-14.142-6.154-24.481c-3.119-7.226-7.731-13.765-13.115-19.493
		c-5.455-5.804-12.327-10.703-19.462-14.203c-5.364-2.631-11.091-4.363-16.894-5.721C87.63,2.387,82.142,2.036,75.976,2.066
		c-11.823,0.058-24.121,4.601-34.16,10.648c-13.61,8.199-23.807,21.675-29.123,36.525C10.752,54.66,9.192,60.7,8.933,66.475
		c-0.075,1.684-0.035,3.373-0.038,5.061c-0.001,0.837,0.005,0.843,0.824,0.845c2.25,0.003,4.499,0.001,6.749,0.002
		c0.937,0,1.873-0.003,2.81,0.008c0.436,0.005,0.657-0.172,0.653-0.624c-0.019-2.122,0.052-4.237,0.39-6.339
		c4.633-28.851,26.399-49.157,55.177-51.943C86.875,12.382,97.621,16.098,99.628,16.903z M16.418,82.656
		c0.256,0.283,0.4,0.517,0.607,0.659c0.727,0.498,1.471,0.972,2.217,1.44c0.959,0.602,1.929,1.187,2.89,1.785
		c1.657,1.03,3.309,2.07,4.972,3.09c0.225,0.138,0.506,0.186,0.762,0.276c0.077-0.261,0.221-0.523,0.222-0.784
		c0.014-4.39,0.012-8.779,0.005-13.169c0-0.25-0.071-0.501-0.14-0.957C24.051,77.588,20.296,80.081,16.418,82.656z M156.555,75.051
		c-0.58,0.356-1.022,0.607-1.442,0.889c-2.096,1.406-8.483,5.712-9.595,6.436c-0.35,0.228-0.348,0.45-0.042,0.675
		c0.395,0.29,0.81,0.552,1.22,0.82c1.131,0.742,5.71,3.699,6.864,4.442c0.78,0.502,1.544,1.03,2.34,1.506
		c0.183,0.109,0.481,0.107,0.693,0.044c0.085-0.025,0.097-0.351,0.111-0.542c0.015-0.206-0.008-9.029-0.017-13.232
		C156.687,75.773,156.609,75.455,156.555,75.051z M154.036,91.009c0.031-0.067,0.062-0.134,0.093-0.202
		c-0.179-0.182-0.333-0.4-0.54-0.539c-1.57-1.057-7.736-5.17-9.259-6.153c-0.492-0.317-1.032-0.762-1.657-0.357
		c-1.241,0.805-9.102,6.223-9.517,6.52c-0.23,0.165-0.436,0.364-0.653,0.547c0.029,0.061,0.058,0.123,0.087,0.184
		C139.739,91.009,146.888,91.009,154.036,91.009z M25.727,90.959c-0.303-0.326-0.461-0.572-0.684-0.722
		c-1.382-0.931-7.679-5.195-9.462-6.37c-0.262-0.173-0.738-0.227-1.023-0.111c-0.499,0.203-8.787,5.757-10.05,6.61
		c-0.124,0.084-0.083,0.411-0.119,0.625c0.223,0.031,0.446,0.089,0.669,0.089c6.601,0.006,13.202,0.006,19.803,0.002
		C25.091,91.082,25.323,91.018,25.727,90.959z M154.443,74.577c-0.015-0.1-0.029-0.199-0.044-0.299
		c-7.341-0.012-14.682-0.012-22.06,0.125c0.201,0.335,0.422,0.562,0.681,0.732c1.407,0.924,9.191,6.013,9.918,6.438
		c0.178,0.104,0.517,0.132,0.68,0.031C144.753,80.899,153.234,75.38,154.443,74.577z M26.019,74.558
		c-0.563-0.365-21.583-0.387-22.239-0.022c0.656,0.454,9.328,6.089,10.699,6.965c0.181,0.116,0.521,0.203,0.67,0.112
		C16.285,80.92,24.669,75.436,26.019,74.558z"/>
</g>
<g>
	<path fill="#FFFFFF" d="M73.429,26.378c0,0.207,0.034,1.123,0.137,1.788c-0.045,0.138-0.355,0.184-0.435,0.081
		c-0.31-1.066-1.043-1.639-2.154-1.639c-1.272,0-2.636,1.088-2.636,3.369c0,2.28,1.318,3.506,2.693,3.506
		c1.387,0,2.028-0.997,2.338-1.776c0.091-0.091,0.367-0.057,0.435,0.081c-0.08,0.848-0.275,1.535-0.435,1.799
		c-0.619,0.172-1.433,0.424-2.327,0.424c-1.123,0-2.269-0.263-3.083-0.871c-0.825-0.63-1.455-1.582-1.455-3.002
		c0-1.398,0.596-2.383,1.386-3.037c0.814-0.676,1.983-1.02,3.174-1.02C72.237,26.08,73.085,26.355,73.429,26.378z"/>
	<path fill="#FFFFFF" d="M78.63,32.257c-0.046,0.779,0.286,0.985,0.516,0.985c0.138,0,0.252-0.034,0.436-0.138
		c0.104,0.023,0.172,0.161,0.138,0.264c-0.138,0.184-0.677,0.619-1.329,0.619c-0.401,0-0.653-0.138-0.963-0.401
		c-0.08-0.069-0.126-0.092-0.184-0.092s-0.126,0.046-0.24,0.126c-0.207,0.149-0.55,0.367-0.974,0.367
		c-0.665,0-1.283-0.401-1.283-1.204c0-0.584,0.355-0.939,1.191-1.191c0.436-0.138,0.756-0.229,1.077-0.321
		c0.207-0.057,0.264-0.137,0.275-0.229c0.012-0.126,0.023-0.252,0.023-0.39c0-0.436-0.173-0.985-0.665-0.985
		c-0.275,0-0.515,0.16-0.595,0.653c-0.023,0.183-0.092,0.286-0.195,0.367c-0.172,0.126-0.619,0.263-0.825,0.263
		c-0.195,0-0.264-0.126-0.264-0.286c0-0.298,0.275-0.665,0.55-0.882c0.39-0.31,1.112-0.699,1.925-0.699
		c0.963,0,1.524,0.481,1.467,1.662L78.63,32.257z M77.255,31.959c0.012-0.184,0-0.218-0.08-0.207
		c-0.516,0.069-0.962,0.264-0.962,0.802c0,0.367,0.264,0.688,0.583,0.688c0.355,0,0.425-0.206,0.436-0.562L77.255,31.959z"/>
	<path fill="#FFFFFF" d="M82.777,29.862c-0.286,0-0.298,0.011-0.298,0.321v2.315c0,0.825,0.046,0.917,0.424,0.951l0.379,0.034
		c0.091,0.069,0.091,0.31-0.012,0.378c-0.539-0.023-1.021-0.034-1.559-0.034c-0.516,0-0.997,0.011-1.353,0.034
		c-0.103-0.068-0.103-0.309-0.011-0.378l0.183-0.023c0.413-0.046,0.459-0.138,0.459-0.962v-2.315c0-0.31-0.023-0.321-0.287-0.321
		h-0.424c-0.068-0.046-0.092-0.252-0.034-0.31l0.493-0.252c0.148-0.08,0.252-0.149,0.252-0.298c0-0.493,0.08-1.33,0.32-1.891
		c0.333-0.756,0.963-1.478,2.246-1.478c0.665,0,1.341,0.344,1.341,0.939c0,0.378-0.275,0.619-0.664,0.619
		c-0.241,0-0.379-0.115-0.459-0.207c-0.492-0.63-0.676-0.756-0.813-0.756c-0.298,0-0.481,0.333-0.481,1.398v1.295
		c0,0.31,0.012,0.321,0.298,0.321h1.089c0.058,0.034,0.08,0.126,0.08,0.229c0,0.149-0.046,0.321-0.148,0.39h-1.021L82.777,29.862
		L82.777,29.862z"/>
	<path fill="#FFFFFF" d="M86.226,31.111c-0.264,0-0.286,0.023-0.286,0.206c0,0.86,0.55,1.696,1.615,1.696
		c0.321,0,0.757-0.069,1.066-0.596c0.126-0.023,0.298,0.069,0.298,0.264c-0.47,0.974-1.318,1.307-2.006,1.307
		c-1.547,0-2.383-1.089-2.383-2.338c0-1.444,1.042-2.567,2.475-2.567c1.191,0,1.834,0.768,1.834,1.65
		c0,0.218-0.058,0.378-0.413,0.378H86.226z M86.983,30.607c0.16,0,0.344-0.023,0.47-0.103c0.057-0.034,0.08-0.149,0.08-0.264
		c0-0.378-0.218-0.63-0.607-0.63c-0.481,0-0.894,0.458-0.894,0.825c0,0.161,0.16,0.172,0.526,0.172
		C86.558,30.607,86.983,30.607,86.983,30.607z"/>
</g>
<g>
	<path fill="#FFFFFF" d="M61.355,107.062c0-1.157-0.022-1.272-0.504-1.341l-0.31-0.046c-0.103-0.058-0.126-0.401,0.046-0.413
		c0.871-0.057,1.708-0.103,2.854-0.103c1.1,0,1.833,0.126,2.337,0.424c0.493,0.298,0.791,0.779,0.791,1.455
		c0,0.963-0.814,1.341-1.169,1.433c-0.115,0.023-0.229,0.068-0.229,0.126c0,0.034,0.057,0.069,0.16,0.092
		c0.905,0.195,1.673,0.791,1.685,1.902c0.011,1.055-0.619,1.673-1.341,1.925c-0.722,0.252-1.582,0.287-2.28,0.287
		c-0.413,0-0.848-0.046-1.18-0.046c-0.562,0-1.123,0.011-1.776,0.034c-0.092-0.068-0.092-0.367,0-0.401l0.333-0.068
		c0.516-0.104,0.584-0.184,0.584-1.215L61.355,107.062L61.355,107.062z M62.936,108.173c0,0.298,0.012,0.321,0.607,0.321
		c0.985,0,1.352-0.631,1.352-1.318c0-0.997-0.619-1.489-1.409-1.489c-0.539,0-0.55,0.092-0.55,0.596
		C62.936,106.283,62.936,108.173,62.936,108.173z M62.936,110.821c0,0.894,0.115,1.455,1.008,1.455c0.848,0,1.295-0.653,1.295-1.581
		c0-0.997-0.573-1.696-1.673-1.696c-0.63,0-0.63,0.012-0.63,0.47C62.936,109.469,62.936,110.821,62.936,110.821z"/>
	<path fill="#FFFFFF" d="M71.359,111.428c0,0.802,0.046,0.905,0.424,0.939L72,112.39c0.092,0.069,0.092,0.333-0.012,0.401
		c-0.401-0.023-0.848-0.034-1.375-0.034c-0.516,0-0.997,0.011-1.375,0.034c-0.104-0.068-0.104-0.332-0.012-0.401l0.218-0.022
		c0.378-0.034,0.424-0.138,0.424-0.939v-1.73c0-0.459,0-0.597-0.218-0.733l-0.16-0.104c-0.08-0.068-0.08-0.275,0-0.344
		c0.538-0.149,1.353-0.458,1.696-0.665c0.092,0,0.16,0.035,0.206,0.104c-0.023,0.344-0.034,0.848-0.034,1.363L71.359,111.428
		L71.359,111.428z M71.451,106.249c0,0.55-0.425,0.836-0.86,0.836c-0.504,0-0.802-0.344-0.802-0.813
		c0-0.504,0.401-0.837,0.859-0.837C71.129,105.434,71.451,105.79,71.451,106.249z"/>
	<path fill="#FFFFFF" d="M74.36,112.562c-0.126-0.229-0.206-0.779-0.183-1.295c0.068-0.114,0.32-0.126,0.39-0.022
		c0.148,0.47,0.584,1.146,1.168,1.146c0.345,0,0.597-0.206,0.597-0.596c0-0.424-0.367-0.665-0.757-0.859
		c-0.688-0.344-1.18-0.756-1.18-1.444c0-0.996,0.836-1.478,1.821-1.478c0.585,0,1.101,0.148,1.227,0.24
		c0.114,0.252,0.172,0.711,0.172,1.146c-0.046,0.126-0.332,0.126-0.401,0.046c-0.229-0.665-0.516-0.906-0.894-0.906
		c-0.332,0-0.573,0.195-0.573,0.505c0,0.264,0.218,0.481,0.733,0.733c0.779,0.378,1.26,0.859,1.26,1.604
		c-0.012,1.02-0.882,1.535-1.959,1.535C75.128,112.918,74.669,112.803,74.36,112.562z"/>
	<path fill="#FFFFFF" d="M82.254,108.793c-0.148,0-0.16,0.011-0.16,0.264v1.719c0,0.642,0,1.352,0.802,1.352
		c0.161,0,0.344-0.08,0.481-0.172c0.115,0.035,0.184,0.161,0.161,0.298c-0.321,0.344-0.94,0.665-1.65,0.665
		c-0.951,0-1.283-0.55-1.283-1.307v-2.555c0-0.241-0.012-0.264-0.218-0.264h-0.355c-0.126-0.046-0.16-0.275-0.069-0.355
		c0.355-0.126,0.677-0.332,0.951-0.516c0.207-0.149,0.493-0.39,0.849-0.894c0.08-0.046,0.286-0.035,0.344,0.057v0.859
		c0,0.218,0.011,0.229,0.218,0.229h1.02c0.058,0.046,0.092,0.114,0.092,0.218c0,0.126-0.034,0.332-0.149,0.401L82.254,108.793
		L82.254,108.793z"/>
	<path fill="#FFFFFF" d="M86.104,109.72c0-0.458,0-0.596-0.218-0.733l-0.161-0.103c-0.08-0.069-0.08-0.275,0-0.345
		c0.527-0.148,1.318-0.458,1.674-0.688c0.092,0,0.16,0.035,0.206,0.104c-0.023,0.229-0.046,0.39-0.046,0.493
		c0,0.08,0.022,0.114,0.114,0.137c0.31-0.194,0.642-0.572,1.123-0.572c0.31,0,0.631,0.24,0.631,0.676
		c0,0.527-0.367,0.745-0.733,0.745c-0.161,0-0.298-0.069-0.447-0.206c-0.264-0.218-0.366-0.229-0.436-0.229
		c-0.16,0-0.218,0.252-0.218,0.688v1.742c0,0.802,0.046,0.894,0.424,0.928l0.367,0.034c0.092,0.069,0.092,0.333-0.012,0.401
		c-0.55-0.023-1.009-0.034-1.547-0.034c-0.47,0-0.974,0.011-1.353,0.034c-0.103-0.068-0.103-0.332-0.011-0.401l0.218-0.022
		c0.378-0.034,0.424-0.138,0.424-0.939L86.104,109.72L86.104,109.72z"/>
	<path fill="#FFFFFF" d="M91.398,110.557c-0.012-1.639,1.283-2.544,2.636-2.544c1.352,0,2.566,0.825,2.566,2.44
		c0,1.673-1.226,2.464-2.636,2.464C92.601,112.918,91.41,112.138,91.398,110.557z M93.049,110.305c0,1.203,0.378,2.085,1.042,2.085
		c0.653,0,0.871-0.744,0.859-1.776c-0.011-1.111-0.332-2.074-0.985-2.074C93.461,108.54,93.049,109.056,93.049,110.305z"/>
</g>
<path fill="#FFFFFF" d="M48.064,69.274h3.369h3.357c0.55,0,1-0.45,1-1c0,0-0.492-0.472-0.71-0.506
	c-2.531-0.394-2.663-1.015-1.975-3.203c0.528-1.76,1.378-4.12,1.378-4.12c0.186-0.518,0.789-0.941,1.339-0.941h8.757
	c0.792,2.112,1.541,4.181,2.024,5.633c0.616,1.849-1.332,2.439-1.332,2.439c-0.526,0.159-0.957,0.607-0.957,0.994
	s0.45,0.704,1,0.704h8.926c0.55,0,1-0.45,1-1v-0.408c-2.816-0.353-3.388-0.836-4.841-4.709c-2.86-7.569-8.112-22.206-8.112-22.206
	c-0.186-0.518-0.713-1.327-1.243-1.182l-0.006,0.002c-0.531,0.145-0.823,0.674-1.025,1.186l-8.65,22.379
	c-1.496,3.785-3.324,4.305-3.324,4.305c-0.536,0.124-0.974,0.542-0.974,0.929S47.514,69.274,48.064,69.274z M59.663,47.024
	c0.187-0.517,0.369-0.94,0.406-0.94s0.431,0.569,0.61,1.089l2.827,9.23c0.179,0.52-0.125,0.946-0.675,0.946h-7.305
	C56.758,54.048,59.663,47.024,59.663,47.024z"/>
<path fill="#FFFFFF" d="M80.476,47.195c-0.008,0.55-0.19,16.759-0.454,18.211c-0.264,1.629-3.204,2.149-3.204,2.149
	c-0.53,0.146-0.964,0.593-0.964,0.992s0.45,0.726,1,0.726h8.474c0.55,0,1-0.45,1-1v-0.452c-2.948-0.264-4.196-0.658-4.328-2.683
	c-0.132-1.54,0.013-6.173,0.013-6.173c0.017-0.55,0.053-1.449,0.079-1.998l0.213-6.242c0.026-0.549,0.078-0.999,0.114-0.999
	s0.235,0.417,0.443,0.926L90.15,68.04c0.207,0.51,0.634,0.926,0.949,0.926s0.751-0.413,0.969-0.918l7.148-17.92
	c0.218-0.505,0.28-0.393,0.844-0.953c0.034-0.034,0.386,1.153,0.391,1.703l0.301,12.059c0,4.269-2.625,4.749-2.625,4.749
	c-0.541,0.099-0.984,0.497-0.984,0.884s0.45,0.704,1,0.704h9.541c0.55,0,1-0.45,1-1v-0.408c-3.608-0.353-3.815-3.93-3.815-3.93
	c-0.032-0.549-0.07-1.448-0.085-1.998l-0.413-15.239c-0.088-4.005,2.796-4.431,2.796-4.431c0.544-0.08,0.989-0.473,0.989-0.872
	s-0.45-0.726-1-0.726l-4.796-0.025c-0.55,0-1.186,0.41-1.414,0.91l-8.064,19.422c-0.227,0.501-1.162,0.524-1.386,0.022
	l-6.963-19.416c-0.224-0.502-0.857-0.913-1.407-0.913h-6.449c-0.55,0-1,0.45-1,1v0.452C81.58,41.963,80.476,47.195,80.476,47.195z"
	/>
<path fill="#FFFFFF" d="M50.255,74.921h2.043c3.204,0,3.801,2.008,4.527,4.741c0.213,0.341,0.556,0.256,0.769-0.129
	c-0.085-2.434-0.237-4.537-0.414-6.135c-0.017-0.153-0.355-0.442-3.174-0.442H38.515c-3.246,0-4.657-0.209-4.784,0.383
	c-0.354,1.654-0.288,3.492-0.998,6.926c-0.124,0.599,0.494,0.729,1.006,0.474c1.281-3.118,0.888-5.818,5.458-5.818h2.648
	c1.025,0,1.025,0.214,1.025,1.238v18.835c0,3.973-0.256,4.356-2.178,4.57l-1.922,0.214c-0.342,0.256-0.342,1.238,0,1.494
	c2.989-0.085,5.21-0.128,7.26-0.128c1.922,0,4.058,0.043,6.833,0.128c0.299-0.256-0.911-1.238-1.21-1.494l-1.708-0.214
	c-1.922-0.257-2.178-0.598-2.178-4.57v-17.63C47.769,76.254,48.42,74.921,50.255,74.921z"/>
<path fill="#FFFFFF" d="M69.862,71.977c-8.044,0-13.74,6.534-13.74,14.99c0,8.927,5.619,14.564,13.355,14.564
	c8.275,0,13.894-5.595,13.894-14.906C83.371,77.956,77.868,71.977,69.862,71.977z M70.846,99.915
	c-7.759,0.311-10.151-8.22-10.366-13.582c-0.294-7.338,2.645-12.519,8.5-12.753c5.903-0.237,9.718,5.729,10.019,13.244
	C79.284,93.943,77.083,99.665,70.846,99.915z"/>
<path fill="#FFFFFF" d="M108.857,102.877c-2.05-1.751-7.872-9.417-10.691-15.14c-0.213-0.471-0.213-0.727,0.214-0.94
	c1.965-0.982,4.321-2.604,4.321-6.406c0-2.733-1.193-4.868-3.67-6.32c-1.623-0.982-2.738-1.538-6.368-1.538
	c-4.058,0-7.277,0.171-10.48,0.385c-0.513,0.213-0.515,0.861-0.088,1.073l1.152,0.171c1.794,0.257,2.771,1.842,2.771,5.418v15.119
	c0,3.93-0.653,4.346-1.349,5.042l-1.153,0.592c-0.341,0.213-0.341,0.86,0,1.116c2.222-0.085,3.271-0.128,5.406-0.128
	c2.05,0,2.351,0.043,4.614,0.128c0.299-0.256,0.578-0.785,0.279-0.998l-1.432-0.71c-1.922-0.342-2.179-1.112-2.179-5.042v-6.087
	c0-0.854,0.75-0.888,2.244-0.888c2.083,0,4.958,7.206,6.582,9.293c2.289,2.942,5.556,8.551,9.484,8.551
	c2.855,0,3.618-0.859,4.098-1.313c0.214-0.257,0.214-0.897-0.171-1.11C111.802,103.101,109.968,103.774,108.857,102.877z
	 M93.517,86.018c-2.52,0-3.372-0.128-3.372-1.622v-7.721c0-2.05,0.809-2.178,2.56-2.178c3.331,0,5.595,2.477,5.595,6.321
	c0,2.52-0.812,3.278-1.537,4.005C95.952,85.634,95.054,86.018,93.517,86.018z"/>
<path fill="#FFFFFF" d="M125.609,94.767c-2.072,3.433-2.943,3.52-6.807,4.38c-3.044,0.678-4.002,0.532-4.558-0.237
	c-0.512-0.726-0.627-3.23-0.627-5.195v-5.082c0-1.281,0.042-1.324,1.195-1.324h2.947c2.221,0,2.733-0.175,3.16,1.875l0.214,1.068
	c0.299,0.384,1.366,0.342,1.58-0.043c-0.085-1.367-0.128-2.387-0.128-4.01s0.043-2.495,0.128-3.862
	c-0.214-0.384-1.281-0.384-1.58-0.042l-0.214,1.067c-0.427,2.05-0.939,1.684-3.16,1.684h-2.947c-1.153,0-1.195-0.085-1.195-1.281
	v-7.474c0-1.58,0-1.666,1.409-1.666h3.417c2.093,0,3.374,0.513,4.186,1.324c0.555,0.598,0.753,1.879,1.223,3.374
	c0.427,0.384,1.409,0.299,1.58-0.171c-0.214-2.861-0.513-5.937-0.556-6.62c-0.555,0.086-2.589,0.128-5.322,0.128h-8.421
	c-2.05,0-3.616-0.042-5.624-0.128c-0.427,0.257-0.47,1.238-0.085,1.495l1.541,0.213c1.922,0.385,2.179,0.641,2.179,4.527
	l0.052,15.931c0,3.93-0.321,3.934-0.871,4.484l-0.468,0.3c-0.342,0.213-0.342,1.238,0,1.494c3.203-0.085,1.397-0.128,3.447-0.128
	l4.894,0.608c3.502,0,5.387,0.414,7.518-0.533c1.187-0.528,3.144-4.559,3.315-6.78C126.859,93.63,125.909,94.27,125.609,94.767z"/>
</svg>
