<?xml version="1.0" encoding="utf-8"?>
<!-- Generator: Adobe Illustrator 17.0.2, SVG Export Plug-In . SVG Version: 6.00 Build 0)  -->
<!DOCTYPE svg PUBLIC "-//W3C//DTD SVG 1.1//EN" "http://www.w3.org/Graphics/SVG/1.1/DTD/svg11.dtd">
<svg version="1.1" id="Layer_1" xmlns="http://www.w3.org/2000/svg" xmlns:xlink="http://www.w3.org/1999/xlink" x="0px" y="0px"
	 width="50px" height="50px" viewBox="0 0 50 50" enable-background="new 0 0 50 50" xml:space="preserve">
<path fill="#AABF46" d="M25.005,0.016c-13.819,0-25.022,11.205-25.022,25.022c0,13.819,11.203,25.02,25.022,25.02
	s25.022-11.201,25.022-25.02C50.027,11.221,38.824,0.016,25.005,0.016z M31.629,24.933h-4.332c0,6.924,0,15.452,0,15.452h-6.423
	c0,0,0-8.441,0-15.452H17.82v-5.456h3.053v-3.535c0-2.53,1.202-6.48,6.482-6.48L32.11,9.48v5.299c0,0-2.892,0-3.453,0
	c-0.563,0-1.36,0.282-1.36,1.485v3.213h4.895L31.629,24.933z"/>
</svg>
