<?xml version="1.0" encoding="UTF-8" standalone="no"?>
<!DOCTYPE svg PUBLIC "-//W3C//DTD SVG 1.1//EN" "http://www.w3.org/Graphics/SVG/1.1/DTD/svg11.dtd">
<svg width="100%" height="100%" viewBox="0 0 298 111" version="1.1" xmlns="http://www.w3.org/2000/svg" xmlns:xlink="http://www.w3.org/1999/xlink" xml:space="preserve" xmlns:serif="http://www.serif.com/" style="fill-rule:evenodd;clip-rule:evenodd;stroke-linejoin:round;stroke-miterlimit:2;">
    <g transform="matrix(1,0,0,1,-108,0)">
        <path d="M140.93,64.27C137.98,77.17 143.86,86.35 157.82,86.35C173.13,86.35 183.06,79.31 186.54,64.27C189.56,51.21 183.85,42.11 169.56,42.11C152.13,42.11 143.92,51.2 140.93,64.27ZM166.89,52.69C172.27,52.69 173.93,55.5 171.95,63.92C169.89,72.66 166.01,75.47 160.73,75.47C156.18,75.47 153.94,72.28 155.83,64.1C157.77,55.75 161.84,52.69 166.89,52.69Z" style="fill:white;"/>
        <path d="M231.04,102.08C226.3,102.08 221.73,101.35 218.7,100.33L221.29,88.96C223.57,89.91 228.56,90.97 232.17,90.97C236.01,90.96 239.46,88.93 240.4,84.45L240.88,82.44L240.61,82.64C239.29,84.2 233.36,85.34 228.28,85.34C215.15,85.34 213.7,73.78 215.67,64.52C218.55,51 227,42.54 236.87,42.54C242.87,42.54 245.37,44.34 249.12,47.71L249.27,47.71L250.23,43.74L264.68,43.74L255.65,83.04C252.17,98.04 244.68,102.08 231.04,102.08ZM244.84,64.9C243.61,70.64 241.04,75.36 235.57,75.36C229.3,75.36 230.47,67.13 231.31,63.27C232.19,59.2 234.85,53.94 240.61,53.94C244.41,53.94 246.08,59.11 244.84,64.9Z" style="fill:white;"/>
        <path d="M192.81,43.64L206.69,43.64L205.54,48.85C210.35,43.52 215.07,42.69 218.94,42.58C220.91,42.52 222.1,42.46 222.47,42.84L219.76,54.76C218.83,54.61 216.83,55.15 215.12,55.52C208.79,56.92 203.59,61.98 201.53,70.39C201.1,72.13 198.29,85.07 198.29,85.07L183.29,85.07L192.81,43.64Z" style="fill:white;"/>
        <path d="M333.22,23.57L319.02,85.07L304.02,85.07L318.23,23.57L333.22,23.57Z" style="fill:white;"/>
        <path d="M375.36,43.64L389.25,43.64L388.1,48.85C392.91,43.52 397.63,42.69 401.5,42.58C403.47,42.52 404.66,42.46 405.03,42.84L402.32,54.76C401.39,54.61 399.39,55.15 397.68,55.52C391.35,56.92 386.15,61.98 384.09,70.39C383.66,72.13 380.85,85.07 380.85,85.07L365.85,85.07L375.36,43.64Z" style="fill:white;"/>
        <path d="M165.9,23.59L112.68,23.59L109.21,38.35L127.8,38.35L116.99,85.07L133.2,85.07L143.94,38.35L162.5,38.35L165.9,23.59Z" style="fill:white;"/>
        <path d="M276.76,102.08C272.02,102.08 267.45,101.35 264.43,100.33L267.02,88.96C269.3,89.91 274.29,90.97 277.9,90.97C281.74,90.96 285.19,88.93 286.13,84.45L286.61,82.44L286.34,82.64C285.02,84.2 279.09,85.34 274.01,85.34C260.88,85.34 259.44,73.78 261.4,64.52C264.27,51.01 272.72,42.55 282.59,42.55C288.59,42.55 291.09,44.35 294.84,47.72L294.99,47.72L295.95,43.75L310.4,43.75L301.37,83.05C297.89,98.04 290.4,102.08 276.76,102.08ZM290.57,64.9C289.34,70.64 286.77,75.36 281.3,75.36C275.03,75.36 276.2,67.13 277.04,63.27C277.92,59.2 280.58,53.94 286.34,53.94C290.13,53.94 291.81,59.11 290.57,64.9Z" style="fill:white;"/>
        <path d="M340.91,60.24C341.45,57.56 344.06,52.5 350.18,52.5C355.72,52.5 356.03,56.45 355.31,60.24L340.91,60.24ZM352.39,74.05C350.94,76.07 348.42,77.51 345.33,77.51C338.6,77.51 337.99,72.8 338.99,68.32L368.13,68.32C368.39,67.46 368.72,65.9 368.98,64.76C371.96,51.4 366.65,42.41 351.83,42.41C338.12,42.41 328.21,51.04 325.19,63.95C322.16,76.9 328.18,86.78 344.12,86.78C355.9,86.78 364.53,81.17 366.33,74.1L352.39,74.05Z" style="fill:white;"/>
    </g>
</svg>
