<?xml version="1.0" standalone="no"?>
<!DOCTYPE svg PUBLIC "-//W3C//DTD SVG 20010904//EN"
 "http://www.w3.org/TR/2001/REC-SVG-20010904/DTD/svg10.dtd">
<svg version="1.0" xmlns="http://www.w3.org/2000/svg"
 width="499.000000pt" height="313.000000pt" viewBox="0 0 499.000000 313.000000"
 preserveAspectRatio="xMidYMid meet">

<g transform="translate(0.000000,313.000000) scale(0.100000,-0.100000)"
fill="#000000" stroke="none">
<path d="M3200 2689 c-175 -19 -180 -22 -154 -84 16 -40 27 -42 100 -21 109
32 259 30 439 -8 39 -8 91 -18 116 -24 25 -5 57 -16 70 -25 13 -10 34 -17 46
-17 13 0 23 -4 23 -10 0 -5 11 -10 24 -10 13 0 29 -6 35 -14 7 -8 23 -17 36
-20 14 -4 25 -11 25 -16 0 -6 9 -10 20 -10 11 0 20 -5 20 -11 0 -5 14 -15 30
-20 17 -6 30 -14 30 -18 0 -10 59 -33 72 -28 8 3 6 6 -4 6 -10 1 -18 5 -18 11
0 12 -48 60 -61 60 -5 0 -12 7 -15 15 -4 8 -12 15 -20 15 -8 0 -14 7 -14 15 0
9 -9 15 -25 15 -14 0 -25 4 -25 9 0 11 -66 51 -85 51 -7 0 -15 4 -17 8 -4 11
-85 52 -102 52 -8 0 -27 7 -42 15 -16 8 -36 15 -45 15 -8 0 -24 7 -35 15 -10
8 -39 15 -64 15 -26 0 -50 4 -55 9 -14 13 -217 20 -305 10z"/>
<path d="M2910 2621 c0 -6 -14 -11 -30 -11 -18 0 -33 -6 -36 -15 -4 -8 -15
-15 -25 -15 -11 0 -22 -7 -25 -15 -4 -8 -14 -15 -25 -15 -10 0 -22 -6 -26 -14
-4 -8 -17 -16 -28 -18 -11 -2 -19 -10 -17 -16 1 -7 -10 -12 -28 -12 -20 0 -30
-5 -30 -15 0 -8 -9 -15 -20 -15 -11 0 -23 -7 -26 -15 -4 -8 -15 -15 -25 -15
-14 0 -19 -7 -19 -30 0 -20 5 -30 15 -30 8 0 15 -8 15 -19 0 -10 7 -24 15 -31
8 -7 15 -19 15 -26 0 -8 4 -14 9 -14 5 0 12 -14 16 -30 4 -17 11 -28 16 -24 5
3 9 -2 9 -10 0 -8 6 -21 13 -28 12 -12 35 -53 75 -133 9 -16 19 -32 22 -35 4
-3 10 -15 14 -27 4 -13 12 -23 17 -23 5 0 9 -9 9 -19 0 -10 7 -21 15 -25 8 -3
15 -12 15 -21 0 -22 47 -19 77 5 14 11 32 20 39 20 8 0 14 4 14 9 0 5 11 12
25 15 14 4 25 11 25 16 0 6 6 10 14 10 7 0 19 7 26 15 7 8 21 15 31 15 11 0
19 5 19 11 0 5 14 15 30 20 17 6 30 15 30 20 0 5 5 9 10 9 6 0 19 9 31 21 16
16 19 30 17 67 -3 43 -6 48 -35 56 -31 10 -32 11 -26 53 4 28 2 43 -5 43 -11
0 -35 37 -48 73 -3 9 -10 17 -14 17 -5 0 -11 14 -15 30 -5 25 -12 30 -35 30
-16 0 -35 -7 -44 -15 -8 -8 -26 -15 -40 -15 -16 0 -26 6 -26 15 0 8 7 15 15
15 8 0 15 7 15 15 0 8 7 15 15 15 8 0 15 7 15 15 0 8 5 15 10 15 6 0 10 7 10
15 0 8 -4 15 -9 15 -5 0 -12 11 -15 24 -4 15 -18 29 -38 37 -18 7 -36 14 -40
17 -5 2 -8 -1 -8 -7z"/>
<path d="M3162 2497 c-29 -10 -32 -15 -27 -37 4 -14 13 -32 21 -41 8 -8 14
-23 14 -32 0 -9 7 -17 15 -17 8 0 15 -7 15 -15 0 -12 19 -15 109 -15 74 0 120
-5 144 -15 20 -8 60 -15 89 -15 29 -1 64 -7 78 -15 14 -8 37 -14 51 -15 14 0
34 -7 45 -15 10 -8 31 -15 46 -15 14 0 28 -3 30 -7 4 -11 90 -53 106 -53 6 0
12 -4 12 -10 0 -5 6 -10 13 -10 8 0 22 -9 32 -20 10 -11 24 -20 32 -20 7 0 13
-4 13 -10 0 -5 5 -10 10 -10 21 0 171 -145 210 -203 14 -20 28 -37 33 -37 4 0
7 -5 7 -10 0 -6 16 -34 35 -63 19 -28 35 -57 35 -64 0 -7 5 -13 10 -13 6 0 10
-5 10 -11 0 -10 11 -39 45 -114 7 -16 16 -48 19 -70 3 -22 10 -41 16 -43 6 -2
10 -72 10 -190 -1 -149 -4 -191 -15 -206 -8 -11 -15 -34 -15 -52 0 -18 -4 -36
-10 -39 -5 -3 -14 -23 -20 -44 -5 -21 -21 -55 -35 -75 -14 -20 -25 -42 -25
-47 0 -6 -6 -17 -12 -24 -23 -26 -34 -40 -44 -56 -27 -48 -147 -179 -163 -179
-14 0 -15 -27 -1 -35 6 -3 13 0 16 8 3 9 16 18 30 21 13 4 24 11 24 16 0 6 5
10 10 10 6 0 24 14 40 30 16 16 31 30 33 30 10 0 107 100 107 110 0 5 7 10 15
10 8 0 15 5 15 11 0 6 14 28 30 48 17 20 36 43 43 51 13 16 24 34 56 100 13
25 29 57 37 72 8 14 14 35 14 45 0 10 5 24 11 30 29 29 33 346 4 438 -7 22
-23 73 -35 113 -12 39 -26 72 -31 72 -5 0 -9 9 -9 19 0 11 -7 26 -15 35 -8 8
-15 21 -15 29 0 8 -8 23 -18 35 -10 11 -27 37 -37 56 -11 20 -23 36 -27 36 -5
0 -8 5 -8 10 0 18 -93 137 -122 156 -16 11 -28 25 -28 32 0 6 -4 12 -9 12 -5
0 -27 18 -49 40 -21 22 -42 40 -46 40 -4 0 -16 9 -28 20 -12 11 -28 20 -35 20
-8 0 -11 5 -8 10 3 6 -1 10 -10 10 -17 0 -77 38 -83 52 -2 4 -17 8 -32 8 -16
0 -31 4 -34 9 -10 15 -91 51 -117 51 -13 0 -33 7 -43 15 -11 8 -31 15 -44 15
-13 0 -38 7 -55 14 -54 25 -427 42 -485 23z"/>
<path d="M2470 2410 c0 -5 -11 -10 -25 -10 -15 0 -24 -5 -22 -12 1 -8 -10 -14
-25 -16 -16 -2 -28 -9 -28 -18 0 -8 -10 -14 -24 -14 -13 0 -27 -7 -30 -16 -11
-28 -6 -65 9 -70 8 -4 15 -12 15 -19 0 -7 7 -18 15 -25 8 -7 15 -21 15 -31 0
-11 7 -19 15 -19 12 0 15 -14 15 -67 0 -36 -3 -64 -6 -60 -4 3 -13 0 -21 -8
-8 -8 -27 -15 -43 -15 -16 0 -32 -4 -35 -10 -3 -5 -18 -10 -33 -10 -15 0 -40
-7 -56 -15 -15 -8 -36 -15 -46 -15 -10 0 -25 -7 -34 -15 -8 -8 -24 -15 -35
-15 -12 0 -21 -6 -21 -13 0 -7 -10 -17 -22 -22 -12 -6 -26 -19 -32 -30 -6 -11
-15 -23 -19 -26 -13 -9 -11 -83 2 -87 6 -2 11 -8 11 -13 0 -5 9 -18 20 -29 16
-16 33 -20 90 -20 56 0 70 3 70 15 0 9 9 15 24 15 13 0 26 7 30 15 3 8 12 15
21 15 8 0 15 7 15 15 0 8 4 15 10 15 12 0 110 98 110 110 0 6 6 10 14 10 8 0
16 5 18 11 2 6 20 11 39 12 39 1 72 -23 83 -60 4 -13 12 -23 17 -23 5 0 9 -9
9 -21 0 -11 4 -18 9 -15 5 3 12 -5 15 -19 13 -52 76 -86 90 -50 3 8 12 15 19
15 8 0 20 7 27 15 7 8 21 15 32 15 10 0 17 4 14 9 -3 5 3 11 14 14 24 6 27 48
5 71 -8 8 -15 22 -15 31 0 8 -7 18 -15 21 -8 4 -15 15 -15 25 0 11 -6 22 -14
25 -8 3 -17 16 -20 30 -4 13 -11 24 -16 24 -6 0 -10 11 -10 24 0 13 -7 26 -15
30 -8 3 -15 15 -15 26 0 11 -6 23 -14 26 -8 3 -17 16 -20 30 -4 13 -11 24 -16
24 -6 0 -10 9 -10 20 0 11 -7 23 -15 26 -8 4 -15 15 -15 25 0 10 -7 19 -15 19
-10 0 -15 10 -15 30 0 20 -5 30 -15 30 -8 0 -15 8 -15 18 -1 17 -32 62 -44 62
-3 0 -6 -4 -6 -10z"/>
<path d="M3288 2245 c-9 -10 5 -67 18 -72 8 -3 14 -13 14 -23 0 -34 32 -48
115 -53 87 -4 182 -22 232 -43 17 -8 37 -14 45 -14 8 0 23 -7 34 -15 10 -8 29
-15 42 -15 12 0 22 -4 22 -8 0 -4 22 -19 50 -33 27 -13 50 -27 50 -31 0 -5 5
-8 10 -8 6 0 20 -9 33 -21 69 -64 107 -105 107 -116 0 -7 7 -13 15 -13 8 0 15
-5 15 -11 0 -6 7 -17 15 -25 8 -9 15 -24 15 -35 0 -10 7 -19 15 -19 9 0 15 -9
15 -25 0 -14 7 -28 15 -31 8 -4 15 -17 15 -30 0 -13 4 -32 10 -42 34 -61 57
-248 40 -327 -5 -27 -15 -77 -21 -110 -5 -33 -14 -68 -20 -77 -5 -10 -9 -31
-9 -47 0 -16 -7 -36 -15 -45 -8 -8 -15 -26 -15 -39 0 -14 -7 -30 -15 -37 -8
-7 -15 -26 -15 -42 0 -26 2 -29 15 -18 8 7 15 19 15 26 0 8 6 14 13 15 6 0 27
32 45 72 18 40 39 85 47 100 8 16 15 36 15 45 0 9 7 26 15 36 8 11 15 36 15
56 0 20 5 41 12 48 7 7 13 61 16 139 4 103 1 136 -12 167 -9 21 -16 50 -16 65
0 14 -7 35 -15 45 -8 11 -15 28 -15 38 0 10 -4 18 -10 18 -5 0 -13 12 -16 28
-4 15 -10 29 -13 32 -11 10 -51 69 -51 77 0 4 -11 18 -23 30 -13 12 -35 38
-48 57 -13 20 -27 36 -31 36 -4 0 -18 10 -31 23 -36 35 -86 77 -91 77 -3 0
-18 12 -33 26 -15 14 -51 37 -80 50 -29 14 -55 29 -58 35 -4 5 -17 9 -31 9
-13 0 -24 4 -24 9 0 5 -17 11 -39 15 -21 3 -51 13 -67 21 -16 8 -48 15 -71 15
-23 0 -45 5 -48 10 -6 10 -207 15 -217 5z"/>
<path d="M360 1676 c0 -49 16 -68 55 -68 l25 0 0 -194 0 -194 -24 0 c-44 0
-56 -10 -56 -47 0 -54 18 -62 144 -63 119 0 135 7 136 61 0 31 -17 49 -47 49
-21 0 -23 4 -23 54 l0 54 90 4 c53 2 94 8 98 14 4 6 22 15 40 19 17 3 32 11
32 16 0 5 7 9 15 9 8 0 15 7 15 15 0 8 7 15 15 15 9 0 15 9 15 24 0 13 7 26
15 30 21 8 21 114 0 122 -9 4 -15 19 -15 35 0 19 -5 29 -15 29 -8 0 -15 7 -15
15 0 10 -10 15 -30 15 -20 0 -30 5 -30 15 0 13 -31 15 -220 15 l-220 0 0 -44z
m414 -99 c11 -40 6 -85 -10 -101 -10 -10 -36 -17 -72 -18 -31 0 -73 -2 -92 -2
l-35 -1 -2 65 c-1 36 0 70 1 75 2 6 43 9 104 7 93 -3 100 -5 106 -25z"/>
<path d="M1563 1713 c-15 -5 -17 -81 -4 -101 5 -9 25 -12 62 -10 l54 3 3 43
c2 24 -2 50 -9 58 -11 13 -79 18 -106 7z"/>
<path d="M2820 1705 c0 -8 -9 -15 -20 -15 -11 0 -20 -7 -20 -15 0 -8 -7 -15
-15 -15 -17 0 -35 -30 -35 -60 0 -13 -9 -24 -25 -30 -45 -17 -45 -88 0 -108
25 -11 25 -13 25 -136 0 -134 8 -167 50 -203 34 -30 108 -32 133 -3 20 23 22
71 5 88 -7 7 -25 12 -40 12 l-28 0 0 120 c0 119 0 120 23 120 30 0 57 29 57
61 0 33 -17 49 -52 49 -27 0 -28 2 -28 53 0 28 -3 62 -6 75 -7 25 -24 30 -24
7z"/>
<path d="M2500 1700 c0 -5 -9 -10 -20 -10 -11 0 -20 -7 -20 -15 0 -8 -7 -15
-15 -15 -11 0 -15 -12 -15 -45 0 -44 -1 -45 -31 -45 -30 0 -30 0 -27 -52 3
-46 6 -53 28 -58 l25 -6 5 -162 c3 -89 8 -162 12 -163 25 -3 48 -13 48 -20 0
-5 20 -9 44 -9 56 0 76 19 76 70 0 36 -3 40 -32 48 l-32 8 -1 115 0 114 27 3
c31 4 42 28 36 78 -2 23 -9 30 -33 34 -28 5 -29 7 -26 52 3 61 -6 88 -30 88
-10 0 -19 -4 -19 -10z"/>
<path d="M1110 1561 c0 -5 -10 -13 -22 -17 -26 -8 -42 -22 -51 -46 -3 -10 -11
-18 -17 -18 -5 0 -10 -18 -10 -40 0 -33 3 -40 19 -40 26 0 51 -10 51 -21 0 -5
-9 -9 -20 -9 -11 0 -20 -7 -20 -15 0 -8 -6 -15 -14 -15 -8 0 -16 -10 -18 -22
-2 -13 -9 -22 -16 -21 -19 4 -16 -103 3 -111 8 -3 15 -12 15 -21 0 -8 7 -15
17 -15 9 0 14 -3 10 -6 -3 -4 10 -15 31 -25 38 -20 142 -27 142 -9 0 14 73 25
78 11 2 -7 28 -11 67 -11 69 0 75 5 75 67 0 26 -5 36 -20 40 -19 5 -20 14 -20
124 0 68 -4 120 -10 124 -5 3 -10 16 -10 27 0 22 -35 58 -57 58 -7 0 -13 5
-13 10 0 6 -38 10 -95 10 -52 0 -95 -4 -95 -9z m122 -98 c28 -13 38 -23 38
-40 0 -22 -3 -23 -76 -23 -74 0 -75 1 -68 23 3 12 7 22 8 23 0 0 12 8 26 17
30 21 25 21 72 0z m38 -177 c0 -7 -7 -19 -15 -26 -8 -7 -15 -18 -15 -25 0 -15
-77 -29 -114 -19 -19 4 -26 13 -26 30 0 15 6 24 15 24 9 0 18 7 21 15 8 21
134 22 134 1z"/>
<path d="M1510 1510 c0 -53 2 -60 20 -60 19 0 20 -7 20 -114 0 -102 -2 -114
-19 -119 -20 -5 -30 -40 -21 -77 6 -25 8 -25 105 -25 l100 0 3 53 c3 47 1 52
-17 52 -20 0 -21 5 -21 163 0 113 -4 167 -12 175 -7 7 -42 12 -85 12 l-73 0 0
-60z"/>
<path d="M1806 1544 c-4 -14 -4 -41 0 -60 5 -27 11 -34 30 -34 24 0 24 0 24
-115 l0 -115 -26 0 c-24 0 -25 -2 -22 -52 l3 -53 96 -3 c92 -3 96 -2 108 21
18 33 10 70 -16 82 -21 9 -23 16 -23 91 0 122 5 139 47 152 48 15 79 1 87 -38
3 -18 6 -87 6 -154 1 -150 4 -156 87 -156 71 0 86 12 81 67 -2 31 -7 39 -25
41 -22 3 -23 8 -24 95 0 109 -12 190 -28 195 -6 2 -11 10 -11 18 0 8 -7 14
-15 14 -9 0 -18 7 -21 15 -9 23 -162 21 -179 -2 -13 -17 -14 -17 -32 0 -14 12
-37 17 -80 17 -57 0 -61 -2 -67 -26z"/>
<path d="M3120 1560 c0 -5 -16 -17 -35 -26 -19 -9 -35 -22 -35 -29 0 -7 -7
-15 -15 -19 -8 -3 -15 -15 -15 -26 0 -11 -7 -32 -16 -45 -19 -30 -16 -156 4
-163 7 -2 12 -15 12 -28 0 -14 7 -27 15 -30 8 -4 15 -10 15 -15 0 -14 38 -49
53 -49 7 0 22 -7 33 -15 26 -20 127 -20 144 0 7 8 20 15 29 15 22 0 71 51 71
73 0 9 5 17 10 17 18 0 10 16 -14 30 -30 16 -116 5 -116 -15 0 -17 -40 -27
-79 -19 -20 4 -37 17 -50 39 -11 18 -17 36 -14 39 4 3 71 6 150 6 l143 0 0 75
c0 60 -3 75 -15 75 -8 0 -15 9 -15 19 0 11 -7 26 -15 35 -8 8 -15 19 -15 24 0
6 -13 13 -30 17 -16 4 -30 11 -30 16 0 5 -38 9 -85 9 -47 0 -85 -4 -85 -10z
m113 -92 c84 -48 77 -68 -24 -68 -70 0 -80 2 -75 16 3 9 6 20 6 25 0 5 6 9 14
9 7 0 19 7 26 15 15 18 24 19 53 3z"/>
<path d="M3590 1552 c-39 -27 -59 -50 -81 -92 -18 -34 -20 -54 -17 -137 2 -66
7 -98 16 -101 6 -2 12 -9 12 -16 0 -21 33 -53 84 -80 57 -30 150 -37 160 -11
3 8 15 15 26 15 11 0 20 4 20 9 0 5 9 12 19 16 10 3 22 17 25 30 4 14 11 25
16 25 6 0 10 20 10 45 l0 45 -53 0 -54 0 -12 -40 c-10 -33 -16 -40 -39 -42
-89 -5 -108 13 -111 103 -3 88 6 117 40 134 32 17 79 20 79 5 0 -5 7 -10 15
-10 8 0 15 -7 15 -15 0 -8 0 -18 1 -22 1 -15 41 -23 80 -17 l39 7 0 83 0 84
-132 -1 c-108 0 -138 -3 -158 -17z"/>
<path d="M1496 901 c-12 -13 -16 -39 -16 -102 0 -46 4 -90 8 -97 12 -18 40 -4
44 21 5 35 34 33 41 -3 10 -45 49 -36 58 14 6 30 29 32 29 3 0 -31 17 -45 55
-45 41 0 65 15 65 39 0 18 5 20 55 17 36 -2 55 -7 55 -15 0 -7 -4 -13 -10 -13
-5 0 -10 -7 -10 -15 0 -13 28 -15 190 -15 115 1 190 5 190 10 0 6 -15 10 -32
10 -60 0 -78 10 -78 41 0 22 5 29 19 29 26 0 81 20 81 30 0 5 -21 10 -47 12
-44 3 -48 5 -48 28 0 23 4 25 48 28 33 2 47 7 47 18 0 11 -15 14 -64 14 -76 0
-76 0 -76 -116 l0 -84 -47 6 c-27 4 -54 13 -60 22 -8 9 -13 45 -13 87 0 79 -4
89 -31 74 -16 -8 -19 -22 -19 -80 0 -61 -2 -70 -16 -65 -9 3 -17 6 -20 6 -2 0
-1 7 3 16 3 9 2 19 -3 23 -18 12 -43 60 -34 63 14 4 -18 48 -36 48 -8 0 -14
-4 -14 -10 0 -5 -7 -10 -15 -10 -11 0 -15 -11 -15 -40 0 -27 -5 -43 -15 -46
-8 -4 -15 -14 -15 -24 0 -25 -10 -50 -21 -50 -5 0 -9 35 -9 78 -1 69 -3 79
-24 94 -24 17 -25 17 -45 -18 -12 -19 -21 -44 -21 -54 0 -19 -25 -50 -41 -50
-5 0 -9 8 -9 18 0 24 -42 111 -56 116 -7 3 -19 -3 -28 -13z m349 -131 c3 -5 1
-10 -4 -10 -6 0 -11 5 -11 10 0 6 2 10 4 10 3 0 8 -4 11 -10z"/>
<path d="M2308 913 c-23 -6 -27 -26 -24 -113 4 -109 5 -110 21 -110 10 0 17
14 21 40 6 36 9 40 36 40 32 0 67 -32 68 -62 0 -10 6 -18 14 -18 12 0 15 20
15 100 0 76 -3 100 -13 100 -8 0 -19 7 -26 15 -12 14 -72 19 -112 8z m105 -51
c15 -17 15 -19 -3 -35 -30 -25 -77 -22 -86 5 -13 42 57 66 89 30z"/>
<path d="M2616 905 c-8 -8 -20 -15 -27 -15 -8 0 -10 -13 -6 -40 4 -30 0 -46
-14 -64 -24 -30 -24 -45 1 -74 20 -24 28 -25 125 -19 29 2 29 3 26 47 -4 55
-6 59 -31 53 -24 -6 -28 21 -5 43 22 22 19 54 -4 54 -10 0 -21 7 -25 15 -3 8
-10 15 -15 15 -5 0 -16 -7 -25 -15z m48 -141 c15 -38 0 -74 -24 -59 -8 5 -7
12 2 23 7 9 8 13 2 9 -8 -4 -11 2 -10 18 1 28 21 34 30 9z"/>
<path d="M2886 905 c-8 -8 -22 -15 -30 -15 -10 0 -16 -9 -16 -24 0 -14 -4 -28
-10 -31 -25 -16 5 -125 35 -125 7 0 15 -5 17 -12 6 -17 128 -13 139 4 11 16
11 79 1 95 -11 17 -77 11 -77 -7 0 -9 11 -16 28 -18 29 -4 36 -19 12 -28 -8
-4 -15 -12 -15 -20 0 -20 -54 -18 -73 4 -26 29 -28 142 -2 142 8 0 15 5 15 10
0 21 42 9 70 -20 16 -16 32 -30 35 -30 3 0 5 14 5 30 0 17 -5 30 -11 30 -6 0
-17 7 -25 15 -9 8 -31 15 -49 15 -18 0 -40 -7 -49 -15z"/>
<path d="M3153 913 c-9 -3 -13 -36 -13 -114 0 -90 3 -109 15 -109 8 0 16 6 17
13 0 6 2 17 3 22 2 6 3 18 4 28 1 14 10 17 51 17 28 0 50 4 50 8 0 5 6 16 13
26 12 17 18 17 53 6 114 -38 126 -48 100 -82 -20 -27 -59 -22 -86 12 -30 35
-40 37 -40 7 0 -35 36 -59 90 -59 55 0 90 24 90 62 0 38 -13 51 -71 70 -30 10
-54 23 -53 29 1 6 2 18 3 26 2 25 46 18 59 -10 15 -33 57 -36 46 -3 -3 12 -16
30 -28 40 -25 21 -82 24 -93 5 -14 -25 -57 -28 -91 -7 -30 19 -90 25 -119 13z
m87 -38 c20 -24 3 -55 -30 -55 -20 0 -31 6 -35 20 -8 25 10 50 35 50 10 0 23
-7 30 -15z"/>
<path d="M3533 913 c-9 -3 -13 -35 -13 -114 l0 -109 81 0 c60 0 80 3 77 13 -3
6 -15 13 -29 15 -80 9 -89 12 -89 37 0 23 4 25 50 25 37 0 52 4 57 16 8 22
-14 34 -64 34 -36 0 -43 3 -43 20 0 18 7 20 54 20 41 0 55 4 60 17 4 9 1 20
-6 25 -13 8 -111 9 -135 1z"/>
<path d="M3710 901 c-5 -11 -10 -63 -10 -115 0 -89 1 -96 20 -96 17 0 20 7 20
40 0 40 0 40 38 40 36 0 40 -3 55 -41 27 -68 42 -46 43 64 1 79 -1 97 -13 97
-8 0 -21 7 -29 15 -24 23 -111 20 -124 -4z m116 -27 c2 -20 -3 -24 -30 -25
-25 0 -27 -2 -11 -8 11 -5 26 -6 34 -3 10 4 11 1 3 -14 -9 -18 -33 -22 -74
-15 -9 1 -11 75 -3 83 3 3 22 5 43 5 32 0 37 -3 38 -23z"/>
<path d="M3065 894 c-10 -4 -10 -165 0 -191 2 -7 11 -13 19 -13 20 0 28 47 24
135 -3 69 -12 83 -43 69z"/>
</g>
</svg>
