<?xml version="1.0" standalone="no"?>
<!DOCTYPE svg PUBLIC "-//W3C//DTD SVG 20010904//EN"
 "http://www.w3.org/TR/2001/REC-SVG-20010904/DTD/svg10.dtd">
<svg version="1.0" xmlns="http://www.w3.org/2000/svg"
 width="635.000000pt" height="277.000000pt" viewBox="0 0 635.000000 277.000000"
 preserveAspectRatio="xMidYMid meet">

<g transform="translate(0.000000,277.000000) scale(0.100000,-0.100000)"
fill="#000000" stroke="none">
<path d="M1197 2313 c-2 -16 -20 -84 -40 -153 -19 -69 -40 -150 -47 -180 -7
-30 -16 -66 -21 -80 -9 -28 -117 -454 -130 -515 -5 -22 -16 -65 -25 -95 -8
-30 -19 -71 -24 -90 -4 -19 -14 -53 -21 -75 l-14 -40 -285 -3 c-156 -1 -288
-6 -293 -11 -5 -5 -7 -21 -3 -35 l6 -26 294 0 c223 0 296 3 303 13 6 6 22 59
37 117 15 58 34 128 42 155 7 28 18 73 24 100 5 28 21 86 34 130 14 44 26 90
26 102 0 12 4 24 9 27 5 3 11 20 14 38 12 72 26 129 66 278 24 85 46 161 51
169 12 22 26 -11 40 -99 7 -41 19 -104 27 -140 7 -36 16 -81 19 -100 3 -19 9
-53 14 -75 5 -22 21 -103 35 -180 14 -77 30 -160 36 -185 6 -25 15 -72 20
-105 5 -33 13 -80 19 -105 6 -25 14 -70 20 -100 19 -116 61 -345 66 -367 10
-39 42 -29 50 15 4 20 12 53 19 72 7 19 19 61 26 93 7 32 16 60 20 63 5 3 13
23 19 44 l11 40 1792 2 1792 3 0 30 c0 22 -5 30 -17 29 -10 0 -825 -1 -1810
-2 l-1793 -2 -17 -38 c-9 -20 -24 -67 -34 -105 -23 -89 -32 -88 -49 3 -4 19
-11 49 -16 65 -4 17 -19 91 -33 165 -13 74 -27 149 -30 165 -4 17 -15 75 -25
130 -10 55 -28 147 -39 205 -24 117 -68 353 -83 445 -6 33 -14 74 -19 90 -4
17 -11 56 -15 88 -5 46 -10 57 -25 57 -12 0 -19 -9 -23 -27z"/>
<path d="M2112 1918 c-9 -9 -12 -103 -12 -360 l0 -348 201 0 200 0 -3 31 -3
31 -151 -1 c-113 -1 -154 1 -162 11 -7 9 -11 116 -11 321 0 170 -3 312 -6 318
-9 13 -39 11 -53 -3z"/>
<path d="M2725 1921 l-170 -6 0 -350 0 -350 198 -3 198 -2 -3 22 c-3 23 -6 23
-168 28 l-165 5 0 140 0 140 140 2 c166 3 185 7 185 33 0 19 -7 20 -154 20
-119 0 -156 3 -165 14 -8 9 -11 54 -9 132 l3 119 165 5 165 5 0 25 c0 30 14
28 -220 21z"/>
<path d="M3067 1924 c-4 -4 -7 -166 -7 -360 0 -350 0 -353 21 -359 12 -4 25
-3 30 2 5 5 10 83 11 173 l3 165 32 3 c41 4 40 5 243 -237 68 -81 91 -102 118
-107 18 -4 37 -3 42 2 5 5 -37 61 -98 129 -192 216 -202 229 -202 251 0 12 3
24 8 26 6 3 83 90 137 157 40 49 100 116 108 119 4 2 7 12 7 23 0 27 -45 25
-73 -3 -12 -13 -73 -85 -136 -160 -110 -134 -114 -138 -152 -138 l-38 0 -3
158 c-3 149 -4 157 -23 160 -12 2 -24 0 -28 -4z"/>
<path d="M3595 1910 c-11 -34 3 -40 90 -40 46 0 90 -3 99 -6 14 -5 16 -44 16
-329 0 -312 1 -323 20 -328 10 -3 24 1 30 8 7 9 10 115 10 324 -1 171 1 315 5
321 3 6 47 10 101 10 l95 0 -3 28 -3 27 -227 3 c-219 2 -227 2 -233 -18z"/>
<path d="M4152 1917 c-8 -9 -11 -123 -10 -355 0 -320 1 -343 18 -352 43 -23
49 -7 52 143 l3 142 120 3 c157 4 179 -1 204 -42 18 -28 21 -50 21 -139 0
-110 7 -125 46 -110 14 5 16 23 12 131 l-4 125 -40 34 c-38 33 -38 35 -19 48
57 39 75 85 75 187 0 107 -34 161 -116 186 -59 17 -348 17 -362 -1z m368 -65
c40 -20 48 -41 49 -137 1 -133 -30 -155 -226 -155 l-133 0 0 155 0 155 138 0
c110 0 144 -3 172 -18z"/>
<path d="M4843 1916 c-108 -29 -133 -92 -132 -330 1 -249 21 -329 89 -366 30
-16 194 -25 284 -15 58 6 72 11 101 40 42 43 55 98 62 267 9 199 -18 351 -67
383 -51 33 -247 45 -337 21z m289 -62 c50 -26 53 -41 53 -291 -1 -219 -2 -234
-21 -260 -26 -34 -68 -44 -189 -43 -107 1 -162 12 -179 36 -23 31 -33 304 -17
464 5 58 9 66 38 86 28 19 46 21 160 21 90 1 136 -4 155 -13z"/>
<path d="M5396 1915 c-9 -25 -7 -508 2 -523 7 -9 40 -12 133 -10 l124 3 3 49
c2 27 -2 54 -7 59 -6 6 -31 10 -56 8 -25 -1 -59 0 -75 4 l-30 7 -2 206 -3 207
-41 3 c-31 2 -43 -1 -48 -13z"/>
<path d="M5752 1718 c3 -168 7 -221 20 -249 31 -71 77 -94 164 -82 39 5 49 11
71 45 39 64 54 158 51 336 l-3 157 -42 3 c-36 3 -43 0 -43 -15 0 -242 -6 -361
-22 -385 -24 -36 -55 -42 -83 -14 -28 28 -38 107 -35 274 1 65 2 123 1 130 -1
7 -16 12 -42 12 l-41 0 4 -212z"/>
<path d="M1611 1911 c-8 -5 -11 -106 -9 -352 l3 -344 195 1 c179 2 195 3 195
20 0 16 -14 17 -160 18 -88 1 -166 5 -172 9 -9 6 -13 45 -13 136 0 86 4 133
13 144 10 14 35 17 162 19 125 3 150 5 150 18 0 13 -24 15 -149 18 -90 1 -155
7 -163 14 -17 14 -19 243 -1 254 6 4 82 6 169 5 137 -2 157 0 163 14 3 9 4 20
1 25 -6 10 -368 10 -384 1z"/>
<path d="M1166 1713 c-9 -38 -23 -84 -30 -103 -8 -19 -30 -105 -50 -190 -39
-163 -98 -387 -120 -455 l-13 -40 -241 -3 c-150 -1 -242 -6 -242 -12 0 -15
-137 -13 -142 2 -6 18 -40 0 -36 -19 3 -17 28 -18 352 -18 300 0 350 2 356 15
9 17 18 52 55 205 41 172 43 177 58 230 8 28 24 93 37 145 12 52 26 104 30
115 7 18 9 17 20 -10 6 -16 16 -55 20 -85 13 -81 27 -156 45 -235 9 -38 23
-116 30 -173 8 -57 17 -107 19 -111 3 -4 12 -47 21 -96 20 -113 31 -170 51
-265 8 -41 19 -102 24 -135 5 -33 16 -96 25 -140 20 -98 32 -165 41 -227 4
-28 12 -48 19 -48 12 0 84 256 105 370 4 25 16 70 25 100 19 63 15 50 51 200
16 65 34 120 43 127 12 10 404 12 1757 13 1522 0 1743 2 1747 15 4 8 2 17 -3
20 -6 4 -3171 8 -3536 5 -7 0 -14 -15 -17 -32 -3 -18 -17 -76 -32 -128 -14
-52 -30 -113 -35 -135 -5 -22 -16 -65 -24 -95 -8 -30 -22 -86 -31 -125 -23
-96 -34 -120 -46 -108 -11 11 -31 97 -54 238 -8 50 -22 126 -30 170 -9 44 -23
118 -31 165 -8 47 -19 108 -24 135 -5 28 -14 77 -20 110 -22 124 -27 152 -44
233 -9 45 -23 119 -32 165 -18 86 -29 150 -40 230 -5 35 -11 47 -24 47 -13 0
-22 -16 -34 -67z"/>
<path d="M5456 1216 c-45 -47 -66 -120 -66 -226 0 -156 28 -245 90 -287 39
-27 67 -29 114 -7 35 17 46 35 73 114 l15 44 -28 23 c-16 13 -32 23 -36 23 -4
0 -16 -20 -27 -44 -22 -51 -53 -67 -81 -41 -29 26 -45 142 -30 219 16 82 25
96 60 96 22 0 33 -7 45 -29 21 -41 29 -44 63 -23 l30 18 -24 59 c-31 75 -55
94 -118 95 -42 0 -53 -4 -80 -34z"/>
<path d="M5766 1243 c-3 -4 -6 -127 -6 -273 l0 -267 108 -7 c59 -3 123 -2 142
2 34 8 35 10 35 52 l0 45 -90 5 -90 5 -3 56 c-2 37 1 59 10 67 8 6 45 12 83
14 l70 3 3 43 3 42 -74 0 c-88 0 -100 9 -95 72 l3 43 80 3 c48 2 82 8 87 15
14 22 9 75 -8 81 -20 8 -250 7 -258 -1z"/>
</g>
</svg>
