<?xml version="1.0" encoding="UTF-8" standalone="no"?><!DOCTYPE svg PUBLIC "-//W3C//DTD SVG 1.1//EN" "http://www.w3.org/Graphics/SVG/1.1/DTD/svg11.dtd"><svg width="100%" height="100%" viewBox="0 0 226 58" version="1.1" xmlns="http://www.w3.org/2000/svg" xmlns:xlink="http://www.w3.org/1999/xlink" xml:space="preserve" style="fill-rule:evenodd;clip-rule:evenodd;stroke-linejoin:round;stroke-miterlimit:1.41421;"><g id="white"><g><clipPath id="_clip1"><rect x="0" y="0" width="225.315" height="57.855"/></clipPath><g clip-path="url(#_clip1)"><path d="M34.287,38.913l-0.037,13.502l-27.056,-15.72l13.388,-7.679l-13.241,-5.171l24.432,-19.55l2.565,16.826l9.604,-7.532l4.412,30.977l-14.067,-5.653Zm-5.359,-38.913c-15.977,0 -28.928,12.951 -28.928,28.928c0,15.976 12.951,28.927 28.928,28.927c15.976,0 28.927,-12.951 28.927,-28.927c0,-15.977 -12.951,-28.928 -28.927,-28.928" style="fill:#fff;fill-rule:nonzero;"/><g><g opacity="0.940002"><clipPath id="_clip2"><rect x="19.32" y="21.121" width="17.169" height="17.792"/></clipPath><g clip-path="url(#_clip2)"><path d="M36.489,35.227l-2.151,-14.107l-0.016,0.013l-13.74,7.882l2.463,0.962l-3.725,2.921l14.967,6.014l0.012,-4.54l2.19,0.855Z" style="fill:#fff;fill-rule:nonzero;"/></g></g></g><path d="M72.522,33.174c0,5.33 3.586,9.012 8.425,9.012c4.629,0 8.424,-3.032 8.424,-8.969c0,-6.022 -3.795,-9.012 -8.424,-9.012c-4.755,0 -8.425,3.639 -8.425,8.969m-0.042,-19.585l0,13.606c1.668,-3.467 5.005,-5.027 8.55,-5.027c5.755,0 10.343,3.986 10.343,11.049c0,7.107 -4.546,11.049 -10.301,11.049c-3.504,0 -6.882,-1.819 -8.592,-5.069l0,4.723l-2.002,0l0,-30.331l2.002,0Z" style="fill:#fff;fill-rule:nonzero;"/><path d="M112.865,33.261c0,-5.546 -3.943,-9.143 -8.796,-9.143c-4.853,0 -8.796,3.597 -8.796,9.143c0,5.547 3.943,8.883 8.796,8.883c4.853,0 8.796,-3.336 8.796,-8.883m-19.672,0c0,-6.803 4.854,-11.136 10.876,-11.136c6.023,0 10.877,4.333 10.877,11.136c0,6.803 -4.854,10.962 -10.877,10.962c-6.022,0 -10.876,-4.159 -10.876,-10.962" style="fill:#fff;fill-rule:nonzero;"/><path d="M136.457,33.261c0,-5.546 -3.943,-9.143 -8.796,-9.143c-4.853,0 -8.796,3.597 -8.796,9.143c0,5.547 3.943,8.883 8.796,8.883c4.853,0 8.796,-3.336 8.796,-8.883m-19.672,0c0,-6.803 4.853,-11.136 10.876,-11.136c6.023,0 10.876,4.333 10.876,11.136c0,6.803 -4.853,10.962 -10.876,10.962c-6.023,0 -10.876,-4.159 -10.876,-10.962" style="fill:#fff;fill-rule:nonzero;"/><path d="M142.794,22.515l0,3.814c1.646,-2.947 4.636,-4.16 7.625,-4.204c5.72,0 9.663,3.511 9.663,9.447l0,12.348l-2.123,0l0,-12.305c0,-4.853 -2.99,-7.453 -7.626,-7.41c-4.42,0.044 -7.496,3.38 -7.496,7.8l0,11.915l-2.123,0l0,-21.405l2.08,0Z" style="fill:#fff;fill-rule:nonzero;"/><path d="M180.922,40.93c-2.166,2.166 -4.983,3.206 -7.799,3.206c-6.023,0 -11.006,-4.16 -11.006,-10.919c0,-6.759 4.81,-10.918 11.006,-10.918c2.816,0 5.633,1.083 7.799,3.206l-1.387,1.343c-1.733,-1.733 -4.116,-2.556 -6.412,-2.556c-4.853,0 -8.927,3.162 -8.927,8.925c0,5.763 4.074,8.926 8.927,8.926c2.296,0 4.636,-0.91 6.369,-2.643l1.43,1.43Z" style="fill:#fff;fill-rule:nonzero;"/><path d="M201.353,33.261c0,-5.546 -3.943,-9.143 -8.796,-9.143c-4.852,0 -8.795,3.597 -8.795,9.143c0,5.547 3.943,8.883 8.795,8.883c4.853,0 8.796,-3.336 8.796,-8.883m-19.671,0c0,-6.803 4.853,-11.136 10.875,-11.136c6.024,0 10.876,4.333 10.876,11.136c0,6.803 -4.852,10.962 -10.876,10.962c-6.022,0 -10.875,-4.159 -10.875,-10.962" style="fill:#fff;fill-rule:nonzero;"/><path d="M208.025,22.515l0,3.814c1.647,-2.947 4.637,-4.16 7.626,-4.204c5.719,0 9.664,3.511 9.664,9.447l0,12.348l-2.123,0l0,-12.305c0,-4.853 -2.991,-7.453 -7.627,-7.41c-4.42,0.044 -7.496,3.38 -7.496,7.8l0,11.915l-2.124,0l0,-21.405l2.08,0Z" style="fill:#fff;fill-rule:nonzero;"/></g></g></g></svg>